<?xml version="1.0" encoding="UTF-8" standalone="no"?>
<!-- Generator: Gravit.io -->
<svg xmlns="http://www.w3.org/2000/svg" xmlns:xlink="http://www.w3.org/1999/xlink" style="isolation:isolate" viewBox="0 0 501.6 163" width="501.6pt" height="163pt"><defs><clipPath id="_clipPath_GSU4t3S420O3recU7DBlVfrnkFhlz8rh"><rect width="501.6" height="163"/></clipPath></defs><g clip-path="url(#_clipPath_GSU4t3S420O3recU7DBlVfrnkFhlz8rh)"><g><path d=" M 202 98.13 L 202 52.478 L 193.429 52.478 L 193.429 71.717 L 171.022 71.717 L 171.022 52.478 L 162.404 52.478 L 162.404 98.13 L 171.022 98.13 L 171.022 79.683 L 193.429 79.683 L 193.429 98.13 L 202 98.13 Z  M 241.363 84.854 C 242.621 71.624 235.913 64.963 225.152 64.963 C 214.717 64.963 208.056 71.997 208.056 81.78 C 208.056 92.075 214.624 98.922 225.711 98.922 C 230.602 98.922 236.146 97.245 239.547 93.705 L 234.469 88.674 C 232.652 90.584 228.786 91.702 225.851 91.702 C 220.261 91.702 216.814 88.814 216.255 84.854 L 241.363 84.854 Z  M 216.394 78.239 C 217.559 74.093 221.099 71.997 225.385 71.997 C 229.95 71.997 233.211 74.093 233.77 78.239 L 216.394 78.239 Z  M 272.761 70.366 C 270.944 67.152 266.798 65.149 262.512 65.149 C 253.102 65.102 245.742 70.879 245.742 81.966 C 245.742 93.239 252.776 99.109 262.326 99.062 C 265.913 99.016 270.944 97.152 272.761 93.379 L 273.134 98.084 L 280.634 98.084 L 280.634 65.941 L 272.994 65.941 L 272.761 70.366 Z  M 263.211 72.276 C 275.742 72.276 275.742 91.748 263.211 91.748 C 257.947 91.748 253.708 88.115 253.708 81.966 C 253.708 75.863 257.947 72.276 263.211 72.276 Z  M 305.183 91.189 C 299.733 91.189 296.053 87.043 296.053 82.059 C 296.053 77.028 299.407 72.929 305.183 72.929 C 310.913 72.929 314.314 77.028 314.314 82.059 C 314.314 87.043 310.587 91.189 305.183 91.189 Z  M 295.307 111.5 L 295.307 94.311 C 297.59 97.804 302.621 98.876 306.022 98.876 C 316.317 98.876 322.233 91.422 322.233 82.059 C 322.233 72.602 315.665 65.196 305.742 65.196 C 302.109 65.196 297.776 66.78 295.307 70.366 L 294.795 65.941 L 287.342 65.941 L 287.342 111.5 L 295.307 111.5 Z  M 363.087 86.391 C 360.059 89.419 355.587 91.05 351.581 91.05 C 340.307 91.05 335.929 83.13 335.882 75.584 C 335.835 67.944 340.587 59.745 351.581 59.745 C 355.587 59.745 359.64 61.096 362.621 64.031 L 368.351 58.488 C 363.646 53.876 357.776 51.5 351.581 51.5 C 335.09 51.5 327.357 63.658 327.404 75.584 C 327.45 87.463 334.624 99.109 351.581 99.109 C 358.196 99.109 364.252 96.966 368.957 92.354 L 363.087 86.391 Z  M 371.146 65.941 L 371.146 98.084 L 379.112 98.084 L 379.112 81.127 C 379.112 75.211 382.978 72.975 387.124 72.975 C 389.733 72.975 391.27 73.674 392.901 75.071 L 396.488 68.13 C 394.717 66.407 391.503 65.102 388.196 65.102 C 384.935 65.102 381.581 65.661 379.112 69.668 L 378.553 65.941 L 371.146 65.941 Z  M 424.717 70.366 C 422.901 67.152 418.755 65.149 414.469 65.149 C 405.059 65.102 397.699 70.879 397.699 81.966 C 397.699 93.239 404.733 99.109 414.283 99.062 C 417.87 99.016 422.901 97.152 424.717 93.379 L 425.09 98.084 L 432.59 98.084 L 432.59 65.941 L 424.95 65.941 L 424.717 70.366 Z  M 415.168 72.276 C 427.699 72.276 427.699 91.748 415.168 91.748 C 409.904 91.748 405.665 88.115 405.665 81.966 C 405.665 75.863 409.904 72.276 415.168 72.276 Z  M 449.873 98.084 L 449.873 73.348 L 459.329 73.348 L 459.329 66.407 L 449.873 66.407 L 449.873 64.217 C 449.873 60.304 451.969 58.488 454.717 58.488 C 456.348 58.488 457.885 59.093 459.609 60.211 L 462.543 54.248 C 459.935 52.571 457 51.64 454.205 51.64 C 447.73 51.64 441.907 55.646 441.907 64.217 L 441.907 66.407 L 435.944 66.407 L 435.944 73.348 L 441.907 73.348 L 441.907 98.084 L 449.873 98.084 Z  M 468.879 57.696 L 468.879 65.988 L 462.87 65.988 L 462.87 72.835 L 468.879 72.835 L 468.879 86.717 C 468.879 94.776 473.444 98.736 480.385 98.457 C 482.807 98.41 484.717 98.037 487 97.106 L 484.764 90.304 C 483.599 90.91 482.155 91.283 480.944 91.283 C 478.429 91.283 476.752 89.792 476.752 86.717 L 476.752 72.835 L 485.696 72.835 L 485.696 65.988 L 476.798 65.988 L 476.798 56.857 L 468.879 57.696 Z " fill="rgb(255,255,255)"/></g><g><path d=" M 60.094 82.252 L 60.094 123.228 L 130.496 123.228 L 60.094 56.848 L 60.094 82.252 Z  M 89.604 36.5 L 60.954 53.96 L 89.604 80.973 L 89.604 36.5 Z  M 0 95.934 L 24.772 95.934 L 11.581 84.114 L 0 95.934 Z  M 57.404 121.56 L 57.404 83.597 L 15.039 83.597 L 57.404 121.56 Z  M 147.565 126.5 L 147.565 109.301 L 140.064 118.871 L 147.565 126.5 Z  M 146.146 106.751 L 116.942 106.751 L 133.734 122.582 L 146.146 106.751 Z " fill="rgb(255,255,255)"/></g></g></svg>