<svg data-v-423bf9ae="" xmlns="http://www.w3.org/2000/svg" viewBox="0 0 324.5962718294605 163" class="iconAbove"><!----><!----><!----><g data-v-423bf9ae="" id="23053078-03ac-40b5-9713-a7dcff203166" fill="black" transform="matrix(4.658385276794434,0,0,4.658385276794434,-3.2608907222747803,100.67080688476562)"><path d="M9.20 10.51L9.20 0.71L7.36 0.71L7.36 4.84L2.55 4.84L2.55 0.71L0.70 0.71L0.70 10.51L2.55 10.51L2.55 6.55L7.36 6.55L7.36 10.51ZM17.65 7.66C17.92 4.82 16.48 3.39 14.17 3.39C11.93 3.39 10.50 4.90 10.50 7C10.50 9.21 11.91 10.68 14.29 10.68C15.34 10.68 16.53 10.32 17.26 9.56L16.17 8.48C15.78 8.89 14.95 9.13 14.32 9.13C13.12 9.13 12.38 8.51 12.26 7.66ZM12.29 6.24C12.54 5.35 13.30 4.90 14.22 4.90C15.20 4.90 15.90 5.35 16.02 6.24ZM24.39 4.55C24.00 3.86 23.11 3.43 22.19 3.43C20.17 3.42 18.59 4.66 18.59 7.04C18.59 9.46 20.10 10.72 22.15 10.71C22.92 10.70 24.00 10.30 24.39 9.49L24.47 10.50L26.08 10.50L26.08 3.60L24.44 3.60ZM22.34 4.96C25.03 4.96 25.03 9.14 22.34 9.14C21.21 9.14 20.30 8.36 20.30 7.04C20.30 5.73 21.21 4.96 22.34 4.96ZM31.35 9.02C30.18 9.02 29.39 8.13 29.39 7.06C29.39 5.98 30.11 5.10 31.35 5.10C32.58 5.10 33.31 5.98 33.31 7.06C33.31 8.13 32.51 9.02 31.35 9.02ZM29.23 13.38L29.23 9.69C29.72 10.44 30.80 10.67 31.53 10.67C33.74 10.67 35.01 9.07 35.01 7.06C35.01 5.03 33.60 3.44 31.47 3.44C30.69 3.44 29.76 3.78 29.23 4.55L29.12 3.60L27.52 3.60L27.52 13.38ZM43.78 7.99C43.13 8.64 42.17 8.99 41.31 8.99C38.89 8.99 37.95 7.29 37.94 5.67C37.93 4.03 38.95 2.27 41.31 2.27C42.17 2.27 43.04 2.56 43.68 3.19L44.91 2.00C43.90 1.01 42.64 0.50 41.31 0.50C37.77 0.50 36.11 3.11 36.12 5.67C36.13 8.22 37.67 10.72 41.31 10.72C42.73 10.72 44.03 10.26 45.04 9.27ZM45.51 3.60L45.51 10.50L47.22 10.50L47.22 6.86C47.22 5.59 48.05 5.11 48.94 5.11C49.50 5.11 49.83 5.26 50.18 5.56L50.95 4.07C50.57 3.70 49.88 3.42 49.17 3.42C48.47 3.42 47.75 3.54 47.22 4.40L47.10 3.60ZM57.01 4.55C56.62 3.86 55.73 3.43 54.81 3.43C52.79 3.42 51.21 4.66 51.21 7.04C51.21 9.46 52.72 10.72 54.77 10.71C55.54 10.70 56.62 10.30 57.01 9.49L57.09 10.50L58.70 10.50L58.70 3.60L57.06 3.60ZM54.96 4.96C57.65 4.96 57.65 9.14 54.96 9.14C53.83 9.14 52.92 8.36 52.92 7.04C52.92 5.73 53.83 4.96 54.96 4.96ZM62.41 10.50L62.41 5.19L64.44 5.19L64.44 3.70L62.41 3.70L62.41 3.23C62.41 2.39 62.86 2.00 63.45 2.00C63.80 2.00 64.13 2.13 64.50 2.37L65.13 1.09C64.57 0.73 63.94 0.53 63.34 0.53C61.95 0.53 60.70 1.39 60.70 3.23L60.70 3.70L59.42 3.70L59.42 5.19L60.70 5.19L60.70 10.50ZM66.49 1.83L66.49 3.61L65.20 3.61L65.20 5.08L66.49 5.08L66.49 8.06C66.49 9.79 67.47 10.64 68.96 10.58C69.48 10.57 69.89 10.49 70.38 10.29L69.90 8.83C69.65 8.96 69.34 9.04 69.08 9.04C68.54 9.04 68.18 8.72 68.18 8.06L68.18 5.08L70.10 5.08L70.10 3.61L68.19 3.61L68.19 1.65Z"></path></g><!----><g data-v-423bf9ae="" id="d5c7ff55-66b2-40ba-815a-c0fb4318671e" transform="matrix(1.7937579154968262,0,0,1.7937579154968262,75.35625457763672,-39.99052429199219)" stroke="none" fill="black"><path d="M40.886 48.171v22.844h39.248L40.886 34.009zM57.337 22.665l-15.972 9.734 15.972 15.059zM7.384 55.799h13.81l-7.354-6.59zM39.386 70.085V48.921H15.768zM89.65 72.839v-9.588l-4.182 5.335zM88.859 61.829H72.578l9.361 8.826z"></path></g><!----></svg>