<?xml version="1.0" encoding="UTF-8" standalone="no"?>
<!-- Generator: Gravit.io -->
<svg xmlns="http://www.w3.org/2000/svg" xmlns:xlink="http://www.w3.org/1999/xlink" style="isolation:isolate" viewBox="0 0 501 163" width="501pt" height="163pt"><defs><clipPath id="_clipPath_h0yRiIoyB7qvZzakLflcM1mt3VPwXDXp"><rect width="501" height="163"/></clipPath></defs><g clip-path="url(#_clipPath_h0yRiIoyB7qvZzakLflcM1mt3VPwXDXp)"><g><path d=" M 201.98 98.13 L 201.98 52.478 L 193.409 52.478 L 193.409 71.717 L 171.002 71.717 L 171.002 52.478 L 162.384 52.478 L 162.384 98.13 L 171.002 98.13 L 171.002 79.683 L 193.409 79.683 L 193.409 98.13 L 201.98 98.13 Z  M 241.344 84.854 C 242.601 71.624 235.893 64.963 225.132 64.963 C 214.698 64.963 208.036 71.997 208.036 81.78 C 208.036 92.075 214.605 98.922 225.691 98.922 C 230.583 98.922 236.126 97.245 239.527 93.705 L 234.449 88.674 C 232.632 90.584 228.766 91.702 225.831 91.702 C 220.241 91.702 216.794 88.814 216.235 84.854 L 241.344 84.854 Z  M 216.375 78.239 C 217.539 74.093 221.08 71.997 225.365 71.997 C 229.931 71.997 233.191 74.093 233.75 78.239 L 216.375 78.239 Z  M 272.741 70.366 C 270.924 67.152 266.778 65.149 262.493 65.149 C 253.083 65.102 245.723 70.879 245.723 81.966 C 245.723 93.239 252.757 99.109 262.306 99.062 C 265.893 99.016 270.924 97.152 272.741 93.379 L 273.114 98.084 L 280.614 98.084 L 280.614 65.941 L 272.974 65.941 L 272.741 70.366 Z  M 263.191 72.276 C 275.723 72.276 275.723 91.748 263.191 91.748 C 257.927 91.748 253.688 88.115 253.688 81.966 C 253.688 75.863 257.927 72.276 263.191 72.276 Z  M 305.164 91.189 C 299.713 91.189 296.033 87.043 296.033 82.059 C 296.033 77.028 299.387 72.929 305.164 72.929 C 310.893 72.929 314.294 77.028 314.294 82.059 C 314.294 87.043 310.567 91.189 305.164 91.189 Z  M 295.288 111.5 L 295.288 94.311 C 297.57 97.804 302.601 98.876 306.002 98.876 C 316.297 98.876 322.213 91.422 322.213 82.059 C 322.213 72.602 315.645 65.196 305.723 65.196 C 302.089 65.196 297.757 66.78 295.288 70.366 L 294.775 65.941 L 287.322 65.941 L 287.322 111.5 L 295.288 111.5 Z  M 363.067 86.391 C 360.039 89.419 355.567 91.05 351.561 91.05 C 340.288 91.05 335.909 83.13 335.862 75.584 C 335.816 67.944 340.567 59.745 351.561 59.745 C 355.567 59.745 359.62 61.096 362.601 64.031 L 368.331 58.488 C 363.626 53.876 357.757 51.5 351.561 51.5 C 335.07 51.5 327.337 63.658 327.384 75.584 C 327.431 87.463 334.605 99.109 351.561 99.109 C 358.176 99.109 364.232 96.966 368.937 92.354 L 363.067 86.391 Z  M 371.126 65.941 L 371.126 98.084 L 379.092 98.084 L 379.092 81.127 C 379.092 75.211 382.959 72.975 387.105 72.975 C 389.713 72.975 391.25 73.674 392.881 75.071 L 396.468 68.13 C 394.698 66.407 391.483 65.102 388.176 65.102 C 384.915 65.102 381.561 65.661 379.092 69.668 L 378.533 65.941 L 371.126 65.941 Z  M 424.698 70.366 C 422.881 67.152 418.735 65.149 414.449 65.149 C 405.039 65.102 397.679 70.879 397.679 81.966 C 397.679 93.239 404.713 99.109 414.263 99.062 C 417.85 99.016 422.881 97.152 424.698 93.379 L 425.07 98.084 L 432.57 98.084 L 432.57 65.941 L 424.931 65.941 L 424.698 70.366 Z  M 415.148 72.276 C 427.679 72.276 427.679 91.748 415.148 91.748 C 409.884 91.748 405.645 88.115 405.645 81.966 C 405.645 75.863 409.884 72.276 415.148 72.276 Z  M 449.853 98.084 L 449.853 73.348 L 459.309 73.348 L 459.309 66.407 L 449.853 66.407 L 449.853 64.217 C 449.853 60.304 451.949 58.488 454.698 58.488 C 456.328 58.488 457.865 59.093 459.589 60.211 L 462.524 54.248 C 459.915 52.571 456.98 51.64 454.185 51.64 C 447.71 51.64 441.887 55.646 441.887 64.217 L 441.887 66.407 L 435.924 66.407 L 435.924 73.348 L 441.887 73.348 L 441.887 98.084 L 449.853 98.084 Z  M 468.859 57.696 L 468.859 65.988 L 462.85 65.988 L 462.85 72.835 L 468.859 72.835 L 468.859 86.717 C 468.859 94.776 473.424 98.736 480.365 98.457 C 482.788 98.41 484.698 98.037 486.98 97.106 L 484.744 90.304 C 483.58 90.91 482.136 91.283 480.924 91.283 C 478.409 91.283 476.732 89.792 476.732 86.717 L 476.732 72.835 L 485.676 72.835 L 485.676 65.988 L 476.778 65.988 L 476.778 56.857 L 468.859 57.696 Z " fill="rgb(255,255,255)"/></g><g><path d=" M 66.529 82.252 L 66.529 123.228 L 136.931 123.228 L 66.529 56.848 L 66.529 82.252 Z  M 96.038 36.5 L 67.388 53.96 L 96.038 80.973 L 96.038 36.5 Z  M 6.435 95.934 L 31.207 95.934 L 18.015 84.114 L 6.435 95.934 Z  M 63.839 121.56 L 63.839 83.597 L 21.474 83.597 L 63.839 121.56 Z  M 154 126.5 L 154 109.301 L 146.499 118.871 L 154 126.5 Z  M 152.581 106.751 L 123.377 106.751 L 140.168 122.582 L 152.581 106.751 Z " fill="rgb(29,199,218)"/></g></g></svg>