<?xml version="1.0" encoding="UTF-8" standalone="no"?><!-- Generator: Gravit.io --><svg xmlns="http://www.w3.org/2000/svg" xmlns:xlink="http://www.w3.org/1999/xlink" style="isolation:isolate" viewBox="0 0 207.183 34.969" width="207.183pt" height="34.969pt"><defs><clipPath id="_clipPath_UkdLyxyGoXBLzHg8BIvz4VElv7OGGSMe"><rect width="207.183" height="34.969"/></clipPath></defs><g clip-path="url(#_clipPath_UkdLyxyGoXBLzHg8BIvz4VElv7OGGSMe)"><path d=" M 23.35 17.777 L 23.35 33.698 L 50.704 33.698 L 23.35 7.906 L 23.35 17.777 Z  M 34.815 0 L 23.683 6.784 L 34.815 17.28 L 34.815 0 Z  M 0 23.093 L 9.625 23.093 L 4.5 18.5 L 0 23.093 Z  M 22.304 33.05 L 22.304 18.299 L 5.844 18.299 L 22.304 33.05 Z  M 57.336 34.969 L 57.336 28.287 L 54.421 32.005 L 57.336 34.969 Z  M 56.785 27.296 L 45.438 27.296 L 51.962 33.447 L 56.785 27.296 Z " fill="rgb(46,46,46)"/><path d=" M 64.322 7.604 L 69.463 7.604 L 69.463 15.885 L 76.469 15.885 L 76.469 7.604 L 81.569 7.604 L 81.569 28.031 L 76.469 28.031 L 76.469 19.562 L 69.463 19.562 L 69.463 28.031 L 64.322 28.031 L 64.322 7.604 Z  M 99.138 18.73 L 99.138 18.73 Q 99.138 20.421 98.977 21.549 L 98.977 21.549 L 89.998 21.549 L 89.998 21.549 Q 90.159 23.213 91.125 23.971 L 91.125 23.971 L 91.125 23.971 Q 92.092 24.73 93.823 24.73 L 93.823 24.73 L 93.823 24.73 Q 94.91 24.73 96.138 24.495 L 96.138 24.495 L 96.138 24.495 Q 97.366 24.26 97.93 23.951 L 97.93 23.951 L 98.695 26.595 L 98.695 26.595 Q 97.863 27.266 96.226 27.756 L 96.226 27.756 L 96.226 27.756 Q 94.588 28.246 92.655 28.246 L 92.655 28.246 L 92.655 28.246 Q 90.213 28.246 88.501 27.3 L 88.501 27.3 L 88.501 27.3 Q 86.79 26.354 85.911 24.575 L 85.911 24.575 L 85.911 24.575 Q 85.032 22.797 85.032 20.314 L 85.032 20.314 L 85.032 20.314 Q 85.032 18.073 85.944 16.301 L 85.944 16.301 L 85.944 16.301 Q 86.857 14.529 88.595 13.523 L 88.595 13.523 L 88.595 13.523 Q 90.333 12.516 92.709 12.516 L 92.709 12.516 L 92.709 12.516 Q 95.528 12.516 97.319 13.925 L 97.319 13.925 L 97.319 13.925 Q 99.111 15.334 99.138 18.73 L 99.138 18.73 Z  M 94.534 19.066 L 94.534 19.066 Q 94.548 18.864 94.548 18.489 L 94.548 18.489 L 94.548 18.489 Q 94.548 17.079 94.085 16.401 L 94.085 16.401 L 94.085 16.401 Q 93.622 15.724 92.602 15.724 L 92.602 15.724 L 92.602 15.724 Q 91.488 15.724 90.857 16.482 L 90.857 16.482 L 90.857 16.482 Q 90.226 17.24 90.038 19.066 L 90.038 19.066 L 94.534 19.066 Z  M 108.735 12.462 L 108.735 12.462 Q 111.177 12.462 112.62 13.033 L 112.62 13.033 L 112.62 13.033 Q 114.063 13.603 114.714 14.858 L 114.714 14.858 L 114.714 14.858 Q 115.365 16.113 115.365 18.247 L 115.365 18.247 L 115.365 28.246 L 112.251 28.246 L 112.251 28.246 Q 111.647 28.246 111.338 28.166 L 111.338 28.166 L 111.338 28.166 Q 111.03 28.085 110.855 27.79 L 110.855 27.79 L 110.855 27.79 Q 110.681 27.495 110.681 26.85 L 110.681 26.85 L 110.681 26.743 L 110.681 26.743 Q 108.963 28.246 106.413 28.246 L 106.413 28.246 L 106.413 28.246 Q 104.923 28.246 103.789 27.622 L 103.789 27.622 L 103.789 27.622 Q 102.655 26.998 102.037 25.884 L 102.037 25.884 L 102.037 25.884 Q 101.42 24.77 101.42 23.361 L 101.42 23.361 L 101.42 23.361 Q 101.42 22.032 102.151 21.032 L 102.151 21.032 L 102.151 21.032 Q 102.883 20.032 104.171 19.482 L 104.171 19.482 L 104.171 19.482 Q 105.433 18.945 107.03 18.75 L 107.03 18.75 L 107.03 18.75 Q 108.627 18.556 110.426 18.556 L 110.426 18.556 L 110.426 17.63 L 110.426 17.63 Q 110.426 16.945 110.204 16.596 L 110.204 16.596 L 110.204 16.596 Q 109.983 16.247 109.399 16.113 L 109.399 16.113 L 109.399 16.113 Q 108.815 15.979 107.634 15.979 L 107.634 15.979 L 107.634 15.979 Q 106.762 15.979 105.386 16.294 L 105.386 16.294 L 105.386 16.294 Q 104.01 16.61 103.017 17.066 L 103.017 17.066 L 102.01 14.14 L 102.01 14.14 Q 102.614 13.778 103.701 13.388 L 103.701 13.388 L 103.701 13.388 Q 104.789 12.999 106.124 12.731 L 106.124 12.731 L 106.124 12.731 Q 107.46 12.462 108.735 12.462 L 108.735 12.462 Z  M 108.493 25.186 L 108.493 25.186 Q 109.057 25.186 109.627 24.985 L 109.627 24.985 L 109.627 24.985 Q 110.198 24.783 110.426 24.542 L 110.426 24.542 L 110.426 20.945 L 110.426 20.945 Q 109.701 20.958 108.923 21.092 L 108.923 21.092 L 108.923 21.092 Q 108.144 21.227 107.741 21.415 L 107.741 21.415 L 107.741 21.415 Q 107.205 21.629 106.876 21.998 L 106.876 21.998 L 106.876 21.998 Q 106.547 22.367 106.547 23.106 L 106.547 23.106 L 106.547 23.106 Q 106.547 24.126 107.111 24.656 L 107.111 24.656 L 107.111 24.656 Q 107.674 25.186 108.493 25.186 L 108.493 25.186 Z  M 128.559 12.516 L 128.559 12.516 Q 130.25 12.516 131.632 13.328 L 131.632 13.328 L 131.632 13.328 Q 133.015 14.14 133.84 15.784 L 133.84 15.784 L 133.84 15.784 Q 134.666 17.428 134.666 19.817 L 134.666 19.817 L 134.666 19.817 Q 134.666 22.367 133.686 24.28 L 133.686 24.28 L 133.686 24.28 Q 132.706 26.193 130.934 27.219 L 130.934 27.219 L 130.934 27.219 Q 129.163 28.246 126.827 28.246 L 126.827 28.246 L 126.827 28.246 Q 125.378 28.246 124.304 27.87 L 124.304 27.87 L 124.344 29.897 L 124.344 34.823 L 119.365 34.823 L 119.365 12.731 L 124.062 12.731 L 124.062 14.22 L 124.062 14.22 Q 125.794 12.516 128.559 12.516 L 128.559 12.516 Z  M 129.431 20.059 L 129.431 20.059 Q 129.431 17.992 128.773 17.099 L 128.773 17.099 L 128.773 17.099 Q 128.116 16.207 126.867 16.207 L 126.867 16.207 L 126.867 16.207 Q 126.17 16.207 125.465 16.442 L 125.465 16.442 L 125.465 16.442 Q 124.76 16.677 124.344 17.012 L 124.344 17.012 L 124.344 24.34 L 124.344 24.34 Q 124.908 24.891 126.451 24.891 L 126.451 24.891 L 126.451 24.891 Q 127.337 24.891 128.008 24.327 L 128.008 24.327 L 128.008 24.327 Q 128.679 23.763 129.055 22.676 L 129.055 22.676 L 129.055 22.676 Q 129.431 21.589 129.431 20.059 L 129.431 20.059 Z  M 147.403 7.389 L 147.403 7.389 Q 148.839 7.389 149.792 7.55 L 149.792 7.55 L 149.792 7.55 Q 150.745 7.711 151.845 7.993 L 151.845 7.993 L 151.845 7.993 Q 152.597 8.181 152.745 8.207 L 152.745 8.207 L 152.074 12.623 L 152.074 12.623 Q 151.362 12.14 150.389 11.791 L 150.389 11.791 L 150.389 11.791 Q 149.416 11.442 147.819 11.442 L 147.819 11.442 L 147.819 11.442 Q 146.235 11.442 144.973 12.153 L 144.973 12.153 L 144.973 12.153 Q 143.712 12.865 142.98 14.247 L 142.98 14.247 L 142.98 14.247 Q 142.249 15.63 142.249 17.549 L 142.249 17.549 L 142.249 17.549 Q 142.249 19.589 142.906 21.106 L 142.906 21.106 L 142.906 21.106 Q 143.564 22.622 144.866 23.461 L 144.866 23.461 L 144.866 23.461 Q 146.168 24.3 148.034 24.3 L 148.034 24.3 L 148.034 24.3 Q 148.852 24.3 149.752 24.099 L 149.752 24.099 L 149.752 24.099 Q 150.651 23.898 151.382 23.589 L 151.382 23.589 L 151.382 23.589 Q 152.114 23.28 152.463 22.985 L 152.463 22.985 L 152.476 27.172 L 152.476 27.172 Q 151.322 27.656 150.174 27.951 L 150.174 27.951 L 150.174 27.951 Q 149.027 28.246 147.456 28.246 L 147.456 28.246 L 147.456 28.246 Q 144.128 28.246 141.766 26.978 L 141.766 26.978 L 141.766 26.978 Q 139.403 25.709 138.175 23.367 L 138.175 23.367 L 138.175 23.367 Q 136.947 21.025 136.947 17.858 L 136.947 17.858 L 136.947 17.858 Q 136.947 14.502 138.316 12.147 L 138.316 12.147 L 138.316 12.147 Q 139.685 9.791 142.054 8.59 L 142.054 8.59 L 142.054 8.59 Q 144.423 7.389 147.403 7.389 L 147.403 7.389 Z  M 164.368 12.489 L 164.368 12.489 Q 165.2 12.489 165.482 12.677 L 165.482 12.677 L 165.482 17.576 L 165.482 17.576 Q 164.851 17.214 163.844 17.214 L 163.844 17.214 L 163.844 17.214 Q 161.684 17.214 160.368 18.676 L 160.368 18.676 L 160.368 28.031 L 155.389 28.031 L 155.389 12.731 L 159.751 12.731 L 159.966 15.187 L 159.966 15.187 Q 160.274 14.408 160.925 13.791 L 160.925 13.791 L 160.925 13.791 Q 161.576 13.174 162.469 12.831 L 162.469 12.831 L 162.469 12.831 Q 163.361 12.489 164.368 12.489 L 164.368 12.489 Z  M 174.756 12.462 L 174.756 12.462 Q 177.199 12.462 178.642 13.033 L 178.642 13.033 L 178.642 13.033 Q 180.085 13.603 180.736 14.858 L 180.736 14.858 L 180.736 14.858 Q 181.387 16.113 181.387 18.247 L 181.387 18.247 L 181.387 28.246 L 178.273 28.246 L 178.273 28.246 Q 177.669 28.246 177.36 28.166 L 177.36 28.166 L 177.36 28.166 Q 177.051 28.085 176.877 27.79 L 176.877 27.79 L 176.877 27.79 Q 176.703 27.495 176.703 26.85 L 176.703 26.85 L 176.703 26.743 L 176.703 26.743 Q 174.985 28.246 172.434 28.246 L 172.434 28.246 L 172.434 28.246 Q 170.945 28.246 169.81 27.622 L 169.81 27.622 L 169.81 27.622 Q 168.676 26.998 168.059 25.884 L 168.059 25.884 L 168.059 25.884 Q 167.441 24.77 167.441 23.361 L 167.441 23.361 L 167.441 23.361 Q 167.441 22.032 168.173 21.032 L 168.173 21.032 L 168.173 21.032 Q 168.904 20.032 170.193 19.482 L 170.193 19.482 L 170.193 19.482 Q 171.455 18.945 173.052 18.75 L 173.052 18.75 L 173.052 18.75 Q 174.649 18.556 176.448 18.556 L 176.448 18.556 L 176.448 17.63 L 176.448 17.63 Q 176.448 16.945 176.226 16.596 L 176.226 16.596 L 176.226 16.596 Q 176.005 16.247 175.421 16.113 L 175.421 16.113 L 175.421 16.113 Q 174.837 15.979 173.656 15.979 L 173.656 15.979 L 173.656 15.979 Q 172.783 15.979 171.408 16.294 L 171.408 16.294 L 171.408 16.294 Q 170.032 16.61 169.039 17.066 L 169.039 17.066 L 168.032 14.14 L 168.032 14.14 Q 168.636 13.778 169.723 13.388 L 169.723 13.388 L 169.723 13.388 Q 170.81 12.999 172.146 12.731 L 172.146 12.731 L 172.146 12.731 Q 173.481 12.462 174.756 12.462 L 174.756 12.462 Z  M 174.515 25.186 L 174.515 25.186 Q 175.078 25.186 175.649 24.985 L 175.649 24.985 L 175.649 24.985 Q 176.219 24.783 176.448 24.542 L 176.448 24.542 L 176.448 20.945 L 176.448 20.945 Q 175.723 20.958 174.944 21.092 L 174.944 21.092 L 174.944 21.092 Q 174.166 21.227 173.763 21.415 L 173.763 21.415 L 173.763 21.415 Q 173.226 21.629 172.897 21.998 L 172.897 21.998 L 172.897 21.998 Q 172.569 22.367 172.569 23.106 L 172.569 23.106 L 172.569 23.106 Q 172.569 24.126 173.132 24.656 L 173.132 24.656 L 173.132 24.656 Q 173.696 25.186 174.515 25.186 L 174.515 25.186 Z  M 186.232 15.992 L 184.313 15.992 L 184.313 13.093 L 186.232 12.731 L 186.232 11.16 L 186.232 11.16 Q 186.232 9.093 187.091 7.812 L 187.091 7.812 L 187.091 7.812 Q 187.95 6.53 189.285 5.979 L 189.285 5.979 L 189.285 5.979 Q 190.621 5.429 192.164 5.429 L 192.164 5.429 L 192.164 5.429 Q 193.775 5.429 195.117 5.738 L 195.117 5.738 L 195.117 9.147 L 195.117 9.147 Q 194.835 8.999 194.332 8.905 L 194.332 8.905 L 194.332 8.905 Q 193.829 8.811 193.158 8.811 L 193.158 8.811 L 193.158 8.811 Q 192.245 8.811 191.735 9.436 L 191.735 9.436 L 191.735 9.436 Q 191.225 10.06 191.225 11.348 L 191.225 11.348 L 191.225 12.731 L 194.54 12.731 L 194.54 15.992 L 191.225 15.992 L 191.225 28.031 L 186.232 28.031 L 186.232 15.992 Z  M 197.614 23.267 L 197.614 15.992 L 195.842 15.992 L 195.842 13.361 L 195.842 13.361 Q 197.023 13.012 197.614 12.711 L 197.614 12.711 L 197.614 12.711 Q 198.204 12.409 198.486 11.818 L 198.486 11.818 L 198.486 11.818 Q 198.661 11.469 199.171 10.18 L 199.171 10.18 L 199.56 9.241 L 202.58 9.241 L 202.58 12.731 L 206.553 12.731 L 206.553 15.992 L 202.58 15.992 L 202.58 21.441 L 202.58 21.441 Q 202.58 22.864 202.734 23.508 L 202.734 23.508 L 202.734 23.508 Q 202.888 24.153 203.244 24.34 L 203.244 24.34 L 203.244 24.34 Q 203.6 24.528 204.351 24.528 L 204.351 24.528 L 204.351 24.528 Q 204.875 24.528 205.559 24.347 L 205.559 24.347 L 205.559 24.347 Q 206.244 24.166 206.593 23.924 L 206.593 23.924 L 207.183 26.689 L 207.183 26.689 Q 206.794 27.052 206.002 27.414 L 206.002 27.414 L 206.002 27.414 Q 205.21 27.776 204.177 28.011 L 204.177 28.011 L 204.177 28.011 Q 203.143 28.246 202.083 28.246 L 202.083 28.246 L 202.083 28.246 Q 200.459 28.246 199.473 27.703 L 199.473 27.703 L 199.473 27.703 Q 198.486 27.159 198.05 26.065 L 198.05 26.065 L 198.05 26.065 Q 197.614 24.971 197.614 23.267 L 197.614 23.267 Z " fill="rgb(46,46,46)"/></g></svg>